<svg id="图层_16" data-name="图层 16" xmlns="http://www.w3.org/2000/svg" viewBox="0 0 21.08 21.08"><defs><style>.cls-1{fill:#ff9335;stroke:#ff9335;stroke-miterlimit:10;}</style></defs><title>add</title><g id="add"><path id="矩形_48" data-name="矩形 48" class="cls-1" d="M442,478h16.41a1.84,1.84,0,0,1,1.84,1.84h0a1.84,1.84,0,0,1-1.84,1.84H442a1.85,1.85,0,0,1-1.84-1.84h0A1.85,1.85,0,0,1,442,478Z" transform="translate(-439.62 -469.29)"/><path id="矩形_49" data-name="矩形 49" class="cls-1" d="M448.33,488V471.62a1.83,1.83,0,0,1,1.84-1.83h0a1.83,1.83,0,0,1,1.83,1.83V488a1.83,1.83,0,0,1-1.83,1.83h0A1.83,1.83,0,0,1,448.33,488Z" transform="translate(-439.62 -469.29)"/></g></svg>