<svg id="图层_3" data-name="图层 3" xmlns="http://www.w3.org/2000/svg" viewBox="0 0 32.08 47.61"><defs><style>.cls-1{fill:#ed7259;}.cls-2{fill:none;stroke:#ed7259;stroke-linecap:round;stroke-linejoin:round;stroke-width:3.5px;}</style></defs><title>logo</title><g id="组_3" data-name="组 3"><path id="路径_46" data-name="路径 46" class="cls-1" d="M355.29,399.91a7.22,7.22,0,1,0,7.21,7.22h0A7.21,7.21,0,0,0,355.29,399.91Zm0,11.47a4.25,4.25,0,1,1,4.25-4.25,4.25,4.25,0,0,1-4.25,4.25Z" transform="translate(-331.63 -399.91)"/><path id="路径_47" data-name="路径 47" class="cls-2" d="M343.23,435.79a20.68,20.68,0,0,1-5.53,10" transform="translate(-331.63 -399.91)"/><path id="路径_48" data-name="路径 48" class="cls-2" d="M354.32,423.65a17.49,17.49,0,0,0,7.64-2.14" transform="translate(-331.63 -399.91)"/><path id="路径_49" data-name="路径 49" class="cls-2" d="M333.38,423.35c22.42-16.4,16.13-.65,14.68,1.12-7,10.37,7.6,7.55,7.22,21.07" transform="translate(-331.63 -399.91)"/></g></svg>