<svg id="图层_14" data-name="图层 14" xmlns="http://www.w3.org/2000/svg" viewBox="0 0 31.65 51.16"><defs><style>.cls-1,.cls-2{fill:none;}.cls-1{stroke:#ce5342;}.cls-1,.cls-2,.cls-3{stroke-linecap:round;stroke-linejoin:round;}.cls-1,.cls-3{stroke-width:4px;}.cls-2{stroke:#ed7259;stroke-width:3px;}.cls-3{fill:#ff9335;stroke:#ff9335;}.cls-4{fill:#ffed67;}</style></defs><title>record</title><g id="组_10" data-name="组 10"><path id="路径_55" data-name="路径 55" class="cls-1" d="M514.25,564.2" transform="translate(-498.42 -519.66)"/><path id="路径_56" data-name="路径 56" class="cls-2" d="M499.92,546.31c0,7.27,6.41,13.16,14.33,13.16s14.32-5.89,14.32-13.16" transform="translate(-498.42 -519.66)"/><line id="直线_6" data-name="直线 6" class="cls-2" x1="15.82" y1="33.23" x2="15.82" y2="48.88"/><line id="直线_7" data-name="直线 7" class="cls-2" x1="11.48" y1="49.66" x2="20.17" y2="49.66"/><rect id="矩形_67" data-name="矩形 67" class="cls-3" x="7.55" y="2" width="16.55" height="31.23" rx="7.09"/></g><g id="路径_84" data-name="路径 84"><path class="cls-4" d="M518.25,531.58h-8a1.5,1.5,0,0,1-1.5-1.5v-2a1.5,1.5,0,0,1,1.5-1.5h8a1.51,1.51,0,0,1,1.5,1.5v2A1.5,1.5,0,0,1,518.25,531.58Z" transform="translate(-498.42 -519.66)"/><path class="cls-4" d="M510.25,527.08a1,1,0,0,0-1,1v2a1,1,0,0,0,1,1h8a1,1,0,0,0,1-1v-2a1,1,0,0,0-1-1h-8m0-1h8a2,2,0,0,1,2,2v2a2,2,0,0,1-2,2h-8a2,2,0,0,1-2-2v-2A2,2,0,0,1,510.25,526.08Z" transform="translate(-498.42 -519.66)"/></g></svg>